<svg class="section-sort" xmlns="http://www.w3.org/2000/svg" viewBox="0 0 500 651.826"><title>b</title><path d="M437.3791,354.1549c-.0049-.01-.0121-.0182-.0172-.0279a152.4512,152.4512,0,0,0-45.7964-49.5181,161.3361,161.3361,0,0,0,25.6763-33.5095,176.4631,176.4631,0,0,0,23.9066-89.7007c0-59.3688-18.0569-105.1834-53.67-136.1682C352.9852,15.2178,302.28,0,236.7686,0H62.6547A27.4839,27.4839,0,0,0,35.1715,27.4831V624.34a27.4831,27.4831,0,0,0,27.4831,27.4833H259.6438c.5272.0024,1.0471.0024,1.5743.0024,68.5037,0,120.7278-17.4183,155.2214-51.7793,32.1094-31.9834,48.389-77.9384,48.389-136.5866C464.8285,422.0189,455.5932,385.2437,437.3791,354.1549ZM310.8016,248.82c-.14.08-.2805.1633-.4184.2455-11.3245,6.7928-35.4631,14.89-86.1519,14.89H136.8V105.1108h91.6115c51.0935,0,74.1176,7.61,84.4385,13.9955,6.2512,3.8679,25.2779,15.6375,25.2779,65.0782C338.1276,233.0776,317.5606,244.9257,310.8016,248.82ZM136.8,366.9764H255.5716c73.4876,0,104.8424,28.23,104.8424,94.3968,0,34.4974-8.2993,57.8937-24.6659,69.5387-.0774.0544-.1547.11-.23.1669-10.6838,7.7682-33.8287,17.0292-83.429,17.0292H136.8Z"/></svg>