<svg class="section-sort" xmlns="http://www.w3.org/2000/svg" viewBox="0 0 500 651.826"><title>c</title><path d="M472.9806,405.9927a26.2,26.2,0,0,0-19.1864-8.36H409.3179a26.1958,26.1958,0,0,0-26.1358,24.4359c-2.6853,39.8825-14.3345,71.7024-34.5328,94.481-21.5444,24.0591-50.1211,35.7533-87.3645,35.7533-50.79,0-87.4337-23.7318-111.9929-72.4849C129.1051,439.464,118.87,386.6772,118.87,322.9269c0-63.6293,10.1867-115.65,30.35-154.76C173.2323,120.8819,208.6305,98.86,260.621,98.86c34.913,0,61.5675,9.2452,81.4776,28.2587,20.498,19.5863,32.6819,46.5036,37.2549,82.2937a26.1951,26.1951,0,0,0,25.9837,22.8766h44.4741a26.1935,26.1935,0,0,0,26.1519-27.6859c-3.4758-61.0143-25.0594-110.8842-64.156-148.23C372.6254,18.9663,321.76,0,260.621,0,175.7412,0,111.1715,36.9887,68.65,110.0348,36.3747,166.0313,20.01,237.8812,20.01,323.59c0,85.1794,16.3178,157.3947,48.4454,214.539,41.972,75.4444,106.18,113.6974,190.8383,113.6974,66.8482,0,120.5719-22.4018,159.5371-66.4241,35.6922-39.6532,56.2454-93.3723,61.09-159.665A26.1985,26.1985,0,0,0,472.9806,405.9927Z"/></svg>